# xmcd
#
# Track frame offsets:
#	150
#	11842
#	21612
#	32791
#	46031
#	55857
#	66926
#	79859
#	91660
#	101889
#	112669
#	125804
#	138515
#
# Disc length: 2002 seconds
#
# Revision: 1
# Processed by: cddbd v1.4PL0 Copyright (c) Steve Scherf et al.
# Submitted via: EasyCDDAExtractor 6.0.0.1
#
DISCID=ae07d00d
DTITLE=Flinck - Old Wheels
DYEAR=2003
DGENRE=Instrumental
TTITLE0=Theme for young lovers
TTITLE1=Walk Don´t run
TTITLE2=Israeli Dance
TTITLE3=Greensleeves
TTITLE4=Wheels
TTITLE5=Dance on
TTITLE6=Yksinäinen kitara
TTITLE7=In the mood
TTITLE8=Wonderful land
TTITLE9=Kuningaskobra
TTITLE10=Petite fleur
TTITLE11=Yksi ainoa ikkuna
TTITLE12=Foot tapper
EXTD=
EXTT0=
EXTT1=
EXTT2=
EXTT3=
EXTT4=
EXTT5=
EXTT6=
EXTT7=
EXTT8=
EXTT9=
EXTT10=
EXTT11=
EXTT12=
PLAYORDER=
